# xmcd
#
# Track frame offsets:
#	150
#	16952
#	36312
#	53990
#	71867
#	94369
#	110190
#	131863
#	153491
#	170084
#	192811
#
# Disc length: 2798 seconds
#
# Revision: 1
# Processed by: cddbd v1.4PL0 Copyright (c) Steve Scherf et al.
# Submitted via: dBpowerAMP V4.0
#
DISCID=a70aec0b
DTITLE=Μιχάλης Χατζηγιάννης - Μονος μου
DYEAR=2003
DGENRE=blues
TTITLE0=Αν μου τηλεφωνουσες
TTITLE1=Μονος μου
TTITLE2=Είσαι εδω (Deep House Mix)
TTITLE3=Θελω να αφεθω
TTITLE4=Παρτυ (Unplugged)
TTITLE5=Ειναι επικινδυνα εδω
TTITLE6=Μονο στα ονειρα
TTITLE7=Οι τιτλοι του τελους
TTITLE8=Χωρις αναπνοη
TTITLE9=Το παρτυ
TTITLE10=Κρυφο φιλι
EXTD=
EXTT0=
EXTT1=
EXTT2=
EXTT3=
EXTT4=
EXTT5=
EXTT6=
EXTT7=
EXTT8=
EXTT9=
EXTT10=
PLAYORDER=
